<svg width="82" height="44" viewBox="0 0 82 44" fill="none" xmlns="http://www.w3.org/2000/svg">
<rect width="82" height="44" rx="2" fill="#ff9bd2"/>
<path d="M20.5156 12.8906 L9.3438 36 L15.0781 36 L26.3906 11.8594 L26.3906 8.2188 L7.5312 8.2188 L7.5312 12.8906 L20.5156 12.8906 ZM29.2032 36 L47.3907 36 L49.0626 31.3125 L35.1876 31.8281 L35.2969 31.9062 L40.9376 26.9688 C45.0938 22.9375 47.5313 19.9688 47.5313 16.0625 C47.5313 11.8906 44.0938 7.75 38.0782 7.75 C33.9532 7.75 30.2501 10.0156 28.0157 12.3594 L31.2969 15.625 C33.2344 13.875 35.4376 12.4844 38.0782 12.4844 C40.6719 12.4844 42.3907 13.9062 42.3907 16.3281 C42.3907 18.5625 41.0782 20.3125 36.0938 25.2969 L29.2032 32.1562 L29.2032 36 ZM61.9481 36.4531 C68.0731 36.4531 72.1981 31.8438 72.1981 26.7812 C72.1981 21.1562 67.5106 17.5156 62.9794 17.5156 C61.1981 17.5156 59.4012 17.9844 58.2762 19.2656 L58.3544 19.3281 L67.6825 8.3438 L62.1044 7.7188 L57.995 13.0781 C53.9325 18.3594 51.7762 22.25 51.7762 26.4062 C51.7762 31.9219 56.0419 36.4531 61.9481 36.4531 ZM61.995 31.8906 C58.8387 31.8906 56.8856 29.6406 56.8856 26.8906 C56.8856 24.1094 58.8387 21.9062 61.995 21.9062 C65.1512 21.9062 67.1044 24.1094 67.1044 26.8906 C67.1044 29.6406 65.1512 31.8906 61.995 31.8906 Z" fill="#000"/>
</svg>
