<svg width="105" height="44" viewBox="0 0 105 44" fill="none" xmlns="http://www.w3.org/2000/svg">
<rect width="105" height="44" fill="#F7BFDA"/>
<path d="M19.565 33.48C22.445 33.48 25.005 32.48 26.765 30.68L23.885 27.84C22.965 28.72 21.605 29.48 19.725 29.48C16.525 29.48 14.365 26.72 14.365 23.04C14.365 19.36 16.525 16.6 19.725 16.6C21.605 16.6 22.965 17.36 23.885 18.24L26.765 15.4C25.005 13.6 22.445 12.6 19.565 12.6C13.885 12.6 9.725 16.92 9.725 23.04C9.725 29.12 13.885 33.48 19.565 33.48ZM39.2144 4.52C32.8944 4.52 28.7744 9 28.7744 14.36C28.7744 20.2 33.4544 23.72 37.9744 23.72C39.5344 23.72 41.0944 23.36 42.4144 22.56L42.4944 22.6L33.8944 33L39.1744 33.48L43.2544 28.28C47.6544 22.76 49.5344 18.88 49.5344 14.76C49.5344 9.28 45.5744 4.52 39.2144 4.52ZM39.0944 8.8C42.3744 8.8 44.5744 11.36 44.5744 14.2C44.5744 17.12 42.4144 19.6 39.0944 19.6C35.8144 19.6 33.6544 17.12 33.6544 14.2C33.6544 11.36 35.8544 8.8 39.0944 8.8ZM53.6119 33H59.0519L70.6119 8.48V5H51.6519V9.24H65.2519L53.6119 33ZM84.1272 33.48C90.9272 33.48 94.9272 27.92 94.9272 19C94.9272 10.08 90.9272 4.52 84.1272 4.52C77.3272 4.52 73.3272 10.08 73.3272 19C73.3272 27.92 77.3272 33.48 84.1272 33.48ZM84.1272 29.2C80.1672 29.2 78.2072 25.24 78.2072 19C78.2072 12.76 80.1672 8.8 84.1272 8.8C88.0872 8.8 90.0472 12.76 90.0472 19C90.0472 25.24 88.0872 29.2 84.1272 29.2Z" fill="black"/>
</svg>
